<svg fill="#FFFFFF" xmlns="http://www.w3.org/2000/svg"  viewBox="0 0 50 50" width="50px" height="50px"><path d="M 5.6992188 7 C 4.9362188 7 4.4542187 7.8193281 4.8242188 8.4863281 L 13.730469 24.513672 C 13.898469 24.815672 13.898469 25.182375 13.730469 25.484375 L 4.8261719 41.513672 C 4.4561719 42.180672 4.9372188 43 5.6992188 43 L 8 43 L 11.412109 43 C 11.775109 43 12.108156 42.803328 12.285156 42.486328 L 21.730469 25.484375 C 21.898469 25.182375 21.898469 24.815672 21.730469 24.513672 L 12.285156 7.5136719 C 12.109156 7.1966719 11.775109 7 11.412109 7 L 8 7 L 5.6992188 7 z M 17.001953 7 C 16.238953 7 15.755953 7.8193281 16.126953 8.4863281 L 25.03125 24.515625 C 25.19925 24.817625 25.19925 25.184328 25.03125 25.486328 L 16.126953 41.515625 C 15.756953 42.181625 16.239953 43 17.001953 43 L 19.300781 43 L 22.712891 43 C 23.075891 43 23.411891 42.803328 23.587891 42.486328 L 29.435547 31.957031 L 35.707031 42.511719 C 35.889031 42.814719 36.215359 43 36.568359 43 L 40 43 L 42.271484 43 C 43.040484 43 43.522672 42.167953 43.138672 41.501953 L 23.589844 7.5019531 C 23.411844 7.1909531 23.080656 7 22.722656 7 L 22.712891 7 L 19.300781 7 L 17.001953 7 z M 34.242188 18 C 33.480187 18 32.999141 18.819328 33.369141 19.486328 L 35.591797 23.486328 C 35.767797 23.803328 36.101844 24 36.464844 24 L 47 24 C 47.552 24 48 23.552 48 23 L 48 19 C 48 18.448 47.552 18 47 18 L 34.242188 18 z M 39.798828 28 C 39.036828 28 38.553828 28.819328 38.923828 29.486328 L 41.146484 33.486328 C 41.323484 33.803328 41.656531 34 42.019531 34 L 47 34 C 47.552 34 48 33.552 48 33 L 48 29 C 48 28.448 47.552 28 47 28 L 39.798828 28 z"/></svg>